<svg width="47" height="50" viewBox="0 0 47 50" fill="none" xmlns="http://www.w3.org/2000/svg">
<path d="M42.21 19.7819C42.21 19.7819 42.21 19.7819 42.2096 19.7819V19.1742C42.2096 8.60138 33.6086 0 23.0366 0C12.4409 0 3.86314 8.57544 3.86314 19.1742V19.7819C1.6304 20.5158 0 22.7848 0 25.4627V28.4C0 31.6696 2.43111 34.3296 5.41954 34.3296H8.19855C8.94966 35.8521 10.519 36.9015 12.328 36.9015H14.4367C15.2515 36.9015 15.9111 36.2423 15.9111 35.4275V18.4357C15.9111 17.622 15.2515 16.9613 14.4367 16.9613H12.328C10.519 16.9613 8.95042 18.0111 8.19855 19.5324H6.81152V19.1742C6.81152 10.2074 14.0675 2.948 23.0366 2.948C31.9832 2.948 39.2616 10.2272 39.2616 19.1742V19.5324H37.8742C37.1227 18.0111 35.5541 16.9613 33.7452 16.9613H31.636C30.8216 16.9613 30.162 17.622 30.162 18.4357V35.4275C30.162 36.2423 30.8216 36.9015 31.636 36.9015H33.7452C35.5541 36.9015 37.1235 35.8521 37.8742 34.3296H39.8357V34.6081C39.8357 39.9048 35.5267 44.2139 30.2311 44.2139H29.829C29.2973 42.4568 27.6623 41.1732 25.7339 41.1732H21.6549C19.2955 41.1732 17.3771 43.0927 17.3771 45.451V45.7222C17.3771 48.0808 19.2955 50 21.6549 50H25.7339C27.5875 50 29.1695 48.8148 29.763 47.1619H30.2311C37.1532 47.1619 42.7841 41.5302 42.7841 34.6081V33.8524C44.7159 32.9453 46.0732 30.843 46.0732 28.4V25.4627C46.0732 22.7848 44.4427 20.5158 42.21 19.7819ZM2.948 28.4V25.4627C2.948 23.819 4.05655 22.4804 5.41954 22.4804H7.72591V31.3816H5.41954C4.05655 31.3816 2.948 30.0442 2.948 28.4ZM12.328 19.9097H12.9627V33.9535H12.328C11.4307 33.9535 10.6976 33.234 10.675 32.3418V21.5214C10.6976 20.6291 11.4307 19.9097 12.328 19.9097ZM21.6549 47.052C20.9217 47.052 20.3251 46.4554 20.3251 45.7222V45.451C20.3251 44.7178 20.9217 44.1216 21.6549 44.1216H25.7339C26.4633 44.1216 27.0638 44.7147 27.0638 45.451V45.7222C27.0638 46.4554 26.4671 47.052 25.7339 47.052H21.6549ZM33.7452 33.9535H33.1104V19.9097H33.7452C34.6424 19.9097 35.3752 20.6291 35.3981 21.5214V32.3418C35.3752 33.234 34.6424 33.9535 33.7452 33.9535ZM43.1252 28.4C43.1252 30.0442 42.0166 31.3816 40.6536 31.3816H38.3472V22.4804H40.6536C42.0166 22.4804 43.1252 23.819 43.1252 25.4627V28.4Z" fill="black"/>
</svg>
