<svg width="46" height="46" viewBox="0 0 46 46" fill="none" xmlns="http://www.w3.org/2000/svg">
<path d="M45.9944 1.90637V0.000350952L45.994 0H44.0884L38.3819 5.70648H14.1718V0.000350952H5.70613V5.70648H0V14.1721H5.70613V38.3826L0 44.0887V45.9947L0.0052643 46H1.90005L7.6118 40.2883H31.8222V45.9944H40.2883V40.2883H45.9944V31.8226H40.2883V7.6125L45.9944 1.90637ZM8.40109 2.69531H11.4768V5.70648H8.40109V2.69531ZM31.8222 37.5933H8.40109V14.1721H11.4768V34.5175H31.8222V37.5933ZM31.8222 31.8226H16.0782L31.8222 16.0785V31.8226ZM14.1718 29.9162V14.1721H29.9162L14.1718 29.9162ZM37.5933 43.2994H34.5172V11.4772H2.69496V8.40144H37.5933V43.2994ZM43.2994 34.5175V37.5933H40.2883V34.5175H43.2994Z" fill="black"/>
</svg>
