<svg width="49" height="41" viewBox="0 0 49 41" fill="none" xmlns="http://www.w3.org/2000/svg">
<path d="M28.8194 8.58857V22.9029H25.7657C25.7657 21.9199 25.7657 1.24989 25.7657 0C24.3745 0 1.39005 0 0 0V34.3543H5.72571C5.72571 37.5116 8.29408 40.08 11.4514 40.08C14.6088 40.08 17.1771 37.5116 17.1771 34.3543H31.6823C31.6823 37.5116 34.2507 40.08 37.408 40.08C40.5653 40.08 43.1337 37.5116 43.1337 34.3543H48.8594V15.408L45.4497 8.58857H28.8194ZM34.5451 11.4514V17.1771H31.6823V11.4514H34.5451ZM16.1617 11.4514L22.9029 4.18022V11.4514H16.1617ZM20.2204 14.3143L14.3143 20.6849V14.3143H20.2204ZM11.4514 11.4514H4.71029L11.4514 4.18022V11.4514ZM2.86286 14.3143H8.76899L2.86286 20.6849V14.3143ZM11.4514 15.6316V22.9029H4.71029L11.4514 15.6316ZM22.9029 15.6316V22.9029H16.1617L22.9029 15.6316ZM20.2204 2.86286L14.3143 9.23346V2.86286H20.2204ZM8.76899 2.86286L2.86286 9.23346V2.86286H8.76899ZM11.4514 37.2171C9.87276 37.2171 8.58857 35.933 8.58857 34.3543C8.58857 32.7756 9.87276 31.4914 11.4514 31.4914C13.0301 31.4914 14.3143 32.7756 14.3143 34.3543C14.3143 35.933 13.0301 37.2171 11.4514 37.2171ZM16.407 31.4914C15.4151 29.7819 13.5661 28.6286 11.4514 28.6286C9.33672 28.6286 7.48779 29.7819 6.49585 31.4914H2.86286V25.7657H28.8194V31.4914H16.407ZM37.408 37.2171C35.8293 37.2171 34.5451 35.933 34.5451 34.3543C34.5451 32.7756 35.8293 31.4914 37.408 31.4914C38.9867 31.4914 40.2709 32.7756 40.2709 34.3543C40.2709 35.933 38.9867 37.2171 37.408 37.2171ZM42.3636 31.4914C41.3716 29.7819 39.5227 28.6286 37.408 28.6286C35.2933 28.6286 33.4444 29.7819 32.4524 31.4914H31.6823V20.04H35.3835L38.2464 22.9029H45.9966V25.7657H43.1337V28.6286H45.9966V31.4914C44.7515 31.4914 43.6325 31.4914 42.3636 31.4914ZM45.9966 20.04H39.4325L37.408 18.0155V11.4514H43.6806L45.9966 16.0834V20.04Z" fill="black"/>
</svg>
