<svg width="12" height="12" viewBox="0 0 12 12" fill="none" xmlns="http://www.w3.org/2000/svg">
<path d="M11.2027 9.03547e-07H0.504345C0.315536 -0.000356014 0.142551 0.105053 0.0562959 0.272923C-0.0311486 0.443053 -0.0158012 0.647923 0.0959136 0.8033L4.01533 6.32468C4.01664 6.32658 4.01807 6.32836 4.01937 6.33027C4.16178 6.52253 4.23888 6.75547 4.23923 6.99473V11.4963C4.2384 11.6295 4.29075 11.7577 4.38462 11.8522C4.47861 11.9467 4.60638 12 4.73963 12C4.80733 11.9999 4.87443 11.9864 4.93701 11.9604L7.13942 11.1207C7.33667 11.0604 7.46766 10.8742 7.46766 10.65V6.99473C7.46802 6.75547 7.54511 6.52253 7.6874 6.33027C7.68871 6.32836 7.69014 6.32658 7.69145 6.32468L11.611 0.803181C11.7227 0.647923 11.738 0.443172 11.6506 0.273042C11.5645 0.105053 11.3914 -0.000356014 11.2027 9.03547e-07Z" fill="#8EB1C6"/>
</svg>
