<svg width="13" height="11" viewBox="0 0 13 11" fill="none" xmlns="http://www.w3.org/2000/svg">
<path d="M1.24774 3.64843C1.41219 3.76447 1.9079 4.10912 2.73489 4.6822C3.56191 5.25528 4.19546 5.69653 4.63558 6.00599C4.68393 6.03991 4.78666 6.11365 4.94381 6.22731C5.101 6.34104 5.2316 6.43294 5.33552 6.50305C5.43952 6.57313 5.56525 6.65174 5.71282 6.73877C5.86035 6.82572 5.99941 6.89112 6.12999 6.93442C6.2606 6.97807 6.38149 6.9997 6.49271 6.9997H6.5H6.50732C6.61854 6.9997 6.73948 6.97805 6.87009 6.93442C7.00061 6.89112 7.1398 6.82564 7.2872 6.73877C7.43468 6.65164 7.5604 6.5731 7.6644 6.50305C7.7684 6.43294 7.8989 6.34104 8.05614 6.22731C8.21327 6.11355 8.31612 6.03991 8.36448 6.00599C8.80934 5.69653 9.94114 4.9106 11.7595 3.64827C12.1126 3.40173 12.4075 3.10424 12.6445 2.75601C12.8816 2.40792 13 2.04277 13 1.66074C13 1.3415 12.8851 1.06823 12.6553 0.84094C12.4256 0.613604 12.1535 0.5 11.8393 0.5H1.16067C0.788295 0.5 0.50173 0.625725 0.301023 0.877174C0.100341 1.12867 0 1.44304 0 1.82024C0 2.12492 0.133043 2.45508 0.399 2.81053C0.664933 3.16601 0.947941 3.44533 1.24774 3.64843Z" fill="#8EB1C6"/>
<path d="M12.2744 4.42469C10.6883 5.49826 9.48391 6.33259 8.66185 6.92752C8.38618 7.13057 8.16256 7.28907 7.99082 7.40265C7.81908 7.5163 7.59067 7.63237 7.30528 7.75081C7.01999 7.86942 6.7541 7.92854 6.50741 7.92854H6.50001H6.49272C6.24607 7.92854 5.98004 7.86942 5.69475 7.75081C5.40945 7.63237 5.1809 7.5163 5.00921 7.40265C4.83757 7.28907 4.61387 7.13057 4.33823 6.92752C3.68529 6.44876 2.48349 5.61438 0.732774 4.42469C0.457034 4.24103 0.212802 4.03052 0 3.79358V9.55346C0 9.87285 0.113604 10.146 0.34094 10.3733C0.568224 10.6007 0.841525 10.7143 1.16074 10.7143H11.8393C12.1585 10.7143 12.4318 10.6007 12.6591 10.3733C12.8864 10.1459 13 9.87288 13 9.55346V3.79358C12.792 4.02562 12.5503 4.23613 12.2744 4.42469Z" fill="#8EB1C6"/>
</svg>
