<svg width="15" height="16" viewBox="0 0 15 16" fill="none" xmlns="http://www.w3.org/2000/svg">
<path d="M14.6637 11.8812L12.3472 9.55922C11.8858 9.09863 11.1217 9.11262 10.6442 9.59136L9.47714 10.7608C9.40341 10.7201 9.32709 10.6775 9.24685 10.6324C8.50986 10.2231 7.50116 9.66215 6.43971 8.59752C5.37512 7.53064 4.8149 6.5181 4.40529 5.77896C4.36207 5.70066 4.32065 5.62516 4.27976 5.55346L5.06303 4.76957L5.44812 4.38314C5.92633 3.90371 5.93952 3.1381 5.47919 2.67616L3.16268 0.35388C2.70235 -0.107406 1.93791 -0.0934123 1.45969 0.386015L0.806819 1.04413L0.82466 1.06188C0.605743 1.34184 0.422809 1.66475 0.286676 2.01296C0.161186 2.34441 0.083057 2.6607 0.0473321 2.97764C-0.258548 5.51921 0.900247 7.84201 4.04507 10.994C8.39217 15.3507 11.8954 15.0215 12.0465 15.0055C12.3756 14.966 12.6911 14.8872 13.0117 14.7624C13.3561 14.6276 13.678 14.4445 13.9572 14.2256L13.9714 14.2383L14.6329 13.5891C15.1101 13.1098 15.1238 12.3439 14.6637 11.8812Z" fill="#8EB1C6"/>
</svg>
